<svg width="30" height="31" viewBox="0 0 30 31" fill="none" xmlns="http://www.w3.org/2000/svg">
<g clip-path="url(#clip0_1882_24447)">
<path d="M14.9996 1.34375C7.04661 1.34375 0.599609 7.79075 0.599609 15.7438C0.599609 23.6968 7.04661 30.1438 14.9996 30.1438C22.9526 30.1438 29.3996 23.6968 29.3996 15.7438C29.3996 7.79075 22.9526 1.34375 14.9996 1.34375ZM18.4106 11.2948H16.2461C15.9896 11.2948 15.7046 11.6322 15.7046 12.0807V13.6438H18.4121L18.0026 15.8728H15.7046V22.5643H13.1501V15.8728H10.8326V13.6438H13.1501V12.3327C13.1501 10.4517 14.4551 8.92325 16.2461 8.92325H18.4106V11.2948Z" fill="white"/>
</g>
<defs>
<clipPath id="clip0_1882_24447">
<rect width="30" height="30" fill="white" transform="translate(0 0.743164)"/>
</clipPath>
</defs>
</svg>
