<svg width="30" height="31" viewBox="0 0 30 31" fill="none" xmlns="http://www.w3.org/2000/svg">
<g clip-path="url(#clip0_1882_24451)">
<path d="M19.4996 15.7438C19.4996 16.9372 19.0255 18.0818 18.1816 18.9257C17.3377 19.7696 16.1931 20.2438 14.9996 20.2438C13.8061 20.2438 12.6615 19.7696 11.8176 18.9257C10.9737 18.0818 10.4996 16.9372 10.4996 15.7438C10.4996 15.4873 10.5266 15.2368 10.5731 14.9938H8.99961V20.9893C8.99961 21.4062 9.33711 21.7438 9.75411 21.7438H20.2466C20.4465 21.7434 20.638 21.6637 20.7792 21.5222C20.9203 21.3808 20.9996 21.1891 20.9996 20.9893V14.9938H19.4261C19.4726 15.2368 19.4996 15.4873 19.4996 15.7438ZM14.9996 18.7438C15.3937 18.7437 15.7839 18.6659 16.1479 18.515C16.5119 18.3642 16.8427 18.143 17.1212 17.8643C17.3998 17.5856 17.6208 17.2548 17.7715 16.8906C17.9222 16.5265 17.9997 16.1363 17.9996 15.7423C17.9995 15.3482 17.9218 14.958 17.7709 14.594C17.62 14.2299 17.3989 13.8992 17.1202 13.6206C16.8415 13.342 16.5106 13.1211 16.1465 12.9704C15.7824 12.8197 15.3922 12.7422 14.9981 12.7423C14.2023 12.7424 13.4391 13.0588 12.8765 13.6217C12.3139 14.1846 11.9979 14.9479 11.9981 15.7438C11.9983 16.5396 12.3147 17.3028 12.8775 17.8654C13.4404 18.428 14.2038 18.7439 14.9996 18.7438ZM18.5996 12.5938H20.3981C20.5176 12.5938 20.6322 12.5464 20.7168 12.462C20.8015 12.3777 20.8492 12.2632 20.8496 12.1437V10.3453C20.8496 10.2255 20.802 10.1107 20.7174 10.026C20.6327 9.94132 20.5179 9.89375 20.3981 9.89375H18.5996C18.4799 9.89375 18.365 9.94132 18.2804 10.026C18.1957 10.1107 18.1481 10.2255 18.1481 10.3453V12.1437C18.1496 12.3912 18.3521 12.5938 18.5996 12.5938ZM14.9996 1.34375C11.1805 1.34375 7.5178 2.86089 4.81727 5.56141C2.11675 8.26194 0.599609 11.9246 0.599609 15.7438C0.599609 19.5629 2.11675 23.2256 4.81727 25.9261C7.5178 28.6266 11.1805 30.1438 14.9996 30.1438C16.8906 30.1438 18.7632 29.7713 20.5103 29.0476C22.2573 28.3239 23.8448 27.2633 25.182 25.9261C26.5191 24.5889 27.5798 23.0015 28.3035 21.2544C29.0271 19.5073 29.3996 17.6348 29.3996 15.7438C29.3996 13.8527 29.0271 11.9802 28.3035 10.2331C27.5798 8.48602 26.5191 6.89858 25.182 5.56141C23.8448 4.22425 22.2573 3.16355 20.5103 2.43988C18.7632 1.71622 16.8906 1.34375 14.9996 1.34375ZM22.4996 21.5773C22.4996 22.4937 21.7496 23.2438 20.8331 23.2438H9.16611C8.24961 23.2438 7.49961 22.4937 7.49961 21.5773V9.91025C7.49961 8.99375 8.24961 8.24375 9.16611 8.24375H20.8331C21.7496 8.24375 22.4996 8.99375 22.4996 9.91025V21.5773Z" fill="white"/>
</g>
<defs>
<clipPath id="clip0_1882_24451">
<rect width="30" height="30" fill="white" transform="translate(0 0.743164)"/>
</clipPath>
</defs>
</svg>
