<svg width="174" height="34" viewBox="0 0 174 34" fill="none" xmlns="http://www.w3.org/2000/svg">
<g clip-path="url(#clip0_1882_24443)">
<path d="M129.851 8.80219C131.214 8.80219 132.452 8.97558 133.564 9.32237C134.676 9.66915 135.615 10.1176 136.38 10.6677C136.858 11.0025 137.235 11.3732 137.51 11.7798C137.785 12.1863 137.923 12.7125 137.923 13.3582V25.9143L137.917 26.2557C137.877 27.3794 137.64 28.3597 137.205 29.1968C136.727 30.1176 136.075 30.8829 135.25 31.4928C134.425 32.1026 133.456 32.5511 132.344 32.8381C131.232 33.1251 130.042 33.2686 128.775 33.2686C126.598 33.2686 124.888 32.9756 123.645 32.3896C122.401 31.8037 121.779 30.853 121.779 29.5376C121.779 28.9875 121.893 28.5032 122.12 28.0847C122.347 27.6662 122.604 27.3493 122.891 27.134C123.585 27.5167 124.368 27.8396 125.241 28.1026C126.114 28.3657 127.017 28.4973 127.95 28.4973C129.241 28.4973 130.269 28.282 131.035 27.8515C131.8 27.421 132.183 26.7274 132.183 25.7708V25.1968L131.91 25.3089C130.983 25.6647 129.878 25.8425 128.595 25.8425C127.519 25.8425 126.497 25.6811 125.528 25.3582C124.559 25.0354 123.71 24.5331 122.981 23.8515C122.251 23.1699 121.665 22.291 121.223 21.2147C120.781 20.1385 120.559 18.859 120.559 17.3762C120.559 15.9173 120.793 14.6497 121.259 13.5735C121.725 12.4973 122.371 11.6064 123.196 10.9008C124.021 10.1953 125.002 9.66915 126.138 9.32237C127.274 8.97558 128.512 8.80219 129.851 8.80219ZM33.2869 9.35911C35.4197 9.35911 37.165 9.83769 38.5227 10.7948C39.8804 11.752 40.6841 13.4426 40.9338 15.8668H36.3769L36.3333 15.5986C36.2301 15.0699 36.0313 14.5871 35.737 14.1501C35.2377 13.4635 34.4626 13.1201 33.4118 13.1201C31.9136 13.1201 30.8888 13.864 30.3374 15.3518C30.0461 16.1425 29.9004 17.1933 29.9004 18.5042C29.9004 19.7526 30.0461 20.7566 30.3374 21.5161C30.868 22.931 31.8668 23.6385 33.3337 23.6385C34.3741 23.6385 35.1128 23.3576 35.5498 22.7958C35.9867 22.234 36.252 21.5057 36.3457 20.611H40.887L40.8561 20.9218C40.7054 22.1599 40.2267 23.336 39.42 24.45C38.0259 26.3955 35.9607 27.3683 33.2245 27.3683C30.4883 27.3683 28.4751 26.5568 27.185 24.9338C25.8949 23.3108 25.2499 21.204 25.2499 18.6134C25.2499 15.6899 25.9626 13.4166 27.3879 11.7936C28.8132 10.1706 30.7796 9.35911 33.2869 9.35911ZM74.6185 9.31229C76.0334 9.31229 77.3079 9.57759 78.4419 10.1082C79.5759 10.6388 80.5123 11.4763 81.251 12.6207C81.9168 13.6299 82.3486 14.8004 82.5462 16.1321C82.6607 16.9124 82.7075 18.036 82.6867 19.5029H71.0447L71.0606 19.7987C71.1718 21.3482 71.7023 22.446 72.6521 23.0923C73.2659 23.5189 74.0046 23.7321 74.8681 23.7321C75.7837 23.7321 76.5276 23.472 77.0998 22.9518C77.4119 22.6709 77.6876 22.2808 77.9269 21.7814H82.4682L82.4345 22.0146C82.2705 22.9483 81.7563 23.8954 80.892 24.8558C79.4355 26.51 77.3963 27.3371 74.7745 27.3371C72.6105 27.3371 70.7014 26.64 69.0471 25.2459C67.3929 23.8518 66.5658 21.5837 66.5658 18.4417C66.5658 15.4974 67.3123 13.2398 68.8053 11.6688C70.2982 10.0978 72.236 9.31229 74.6185 9.31229ZM105.848 3.06228C106.374 3.06228 106.846 3.09815 107.265 3.1699C107.683 3.24165 108.036 3.38515 108.323 3.60039C108.61 3.81564 108.831 4.10861 108.987 4.47932C109.142 4.85002 109.22 5.33432 109.22 5.93223V26.7394L109.099 26.761C108.843 26.8064 108.495 26.865 108.054 26.9367C107.54 27.0204 107.019 27.0623 106.493 27.0623C105.967 27.0623 105.495 27.0264 105.076 26.9547C104.658 26.8829 104.305 26.7394 104.018 26.5242C103.731 26.3089 103.51 26.0159 103.354 25.6452C103.199 25.2745 103.121 24.7902 103.121 24.1923V3.38515L103.242 3.36355C103.498 3.31816 103.846 3.25959 104.287 3.18784C104.801 3.10413 105.321 3.06228 105.848 3.06228ZM115.015 9.26855C115.541 9.26855 116.014 9.30443 116.432 9.37618C116.851 9.44793 117.203 9.59142 117.49 9.80667C117.777 10.0219 117.999 10.3149 118.154 10.6856C118.31 11.0563 118.387 11.5406 118.387 12.1385V26.7394L118.267 26.761C118.011 26.8064 117.662 26.865 117.221 26.9367C116.707 27.0204 116.187 27.0623 115.661 27.0623C115.135 27.0623 114.662 27.0264 114.244 26.9547C113.825 26.8829 113.473 26.7394 113.186 26.5242C112.899 26.3089 112.677 26.0159 112.522 25.6452C112.366 25.2745 112.289 24.7902 112.289 24.1923V9.59142L112.409 9.56983C112.665 9.52444 113.014 9.46586 113.455 9.39412C113.969 9.31041 114.489 9.26855 115.015 9.26855ZM143.574 3.06228C144.101 3.06228 144.573 3.09815 144.991 3.1699C145.41 3.24165 145.763 3.38515 146.05 3.60039C146.337 3.81564 146.558 4.10861 146.713 4.47932C146.869 4.85002 146.947 5.33432 146.947 5.93223V9.44793L147.071 9.40224C147.378 9.29368 147.809 9.17139 148.364 9.03537C148.997 8.87991 149.697 8.80219 150.462 8.80219C152.83 8.80219 154.678 9.39412 156.005 10.578C157.332 11.7618 157.996 13.5257 157.996 15.8695V26.7394L157.885 26.7702C157.646 26.8317 157.307 26.8932 156.866 26.9547C156.352 27.0264 155.82 27.0623 155.27 27.0623C154.743 27.0623 154.271 27.0264 153.852 26.9547C153.434 26.8829 153.081 26.7394 152.794 26.5242C152.507 26.3089 152.286 26.0159 152.131 25.6452C151.975 25.2745 151.897 24.7902 151.897 24.1923V16.2282L151.893 16.0071C151.858 15.1436 151.614 14.5297 151.162 14.1654C150.672 13.7708 150.068 13.5735 149.35 13.5735C148.872 13.5735 148.417 13.6333 147.987 13.7529C147.557 13.8724 147.21 14.0159 146.947 14.1834V26.7394L146.836 26.7702C146.597 26.8317 146.257 26.8932 145.817 26.9547C145.302 27.0264 144.77 27.0623 144.22 27.0623C143.694 27.0623 143.222 27.0264 142.803 26.9547C142.385 26.8829 142.032 26.7394 141.745 26.5242C141.458 26.3089 141.237 26.0159 141.081 25.6452C140.926 25.2745 140.848 24.7902 140.848 24.1923V3.38515L140.968 3.36355C141.225 3.31816 141.573 3.25959 142.014 3.18784C142.528 3.10413 143.048 3.06228 143.574 3.06228ZM100.626 5.03537L100.708 5.17438C100.843 5.41853 100.965 5.72496 101.075 6.09367C101.206 6.53612 101.272 6.99651 101.272 7.47483C101.272 8.40757 101.075 9.07125 100.68 9.46586C100.285 9.86048 99.7533 10.0578 99.0836 10.0578H91.55V14.1116H99.4065L99.4997 14.2501C99.6508 14.4926 99.7812 14.7932 99.8908 15.152C100.022 15.5825 100.088 16.0369 100.088 16.5152C100.088 17.424 99.8908 18.0757 99.4962 18.4703C99.1016 18.865 98.5694 19.0623 97.8998 19.0623H91.6217V26.6318L91.4998 26.6625C91.2377 26.724 90.8658 26.7855 90.3841 26.847C89.822 26.9188 89.266 26.9547 88.7159 26.9547C88.1658 26.9547 87.6815 26.9128 87.263 26.8291C86.8445 26.7454 86.4917 26.5959 86.2047 26.3807C85.9177 26.1654 85.7025 25.8665 85.559 25.4838C85.4155 25.1011 85.3437 24.5989 85.3437 23.9771V8.37169L85.3499 8.11908C85.3956 7.20926 85.6925 6.48031 86.2406 5.93223C86.8385 5.33432 87.6516 5.03537 88.68 5.03537H100.626ZM16.3082 3.80341V7.84534H4.7754V13.1357H14.8724V17.1308H4.7754V26.7753H0V3.80341H16.3082ZM22.8234 9.76486V26.7753H18.3133V9.76486H22.8234ZM47.4022 3.85023V16.2413L52.9423 9.84289H58.4512L52.5054 16.3505L58.6853 26.7753H53.3169L49.2437 19.5029L47.4022 21.4225V26.7753H43.0326V3.85023H47.4022ZM64.4827 3.7722V26.7753H60.035V3.7722H64.4827ZM158.328 4.88784C159.074 4.66365 160.346 4.61378 161.836 5.2725C163.339 5.93747 164.277 7.07807 164.649 8.69427L172.721 9.3803C172.821 9.38609 172.92 9.40634 173.019 9.44105C173.167 9.4931 173.247 9.56634 173.314 9.62367C173.478 9.76424 173.531 9.87263 173.609 10.0667C173.748 10.4118 173.706 10.8181 173.525 11.0966C173.233 11.5456 172.777 11.8362 172.156 11.9682L165.639 13.3533L166.79 18.7649C166.922 19.3861 167.213 19.7862 167.663 19.9652C168.113 20.1442 168.696 20.1576 169.413 20.0052C169.772 19.929 170.135 19.8205 170.505 19.6795C170.875 19.5385 171.193 19.3897 171.459 19.2332C171.73 19.4503 171.977 19.7037 172.201 19.9932C172.425 20.2827 172.585 20.6545 172.682 21.1084C173.038 22.7866 170.397 24.372 168.666 24.6831C167.062 24.9713 164.602 25.2106 163.195 21.5259C161.789 17.8412 159.58 11.6648 157.894 6.51756C157.748 6.07337 157.658 5.63709 157.814 5.27709C157.899 5.08251 157.96 4.99851 158.328 4.88784ZM130.138 13.5735C128.966 13.5735 128.087 13.9023 127.501 14.56C126.915 15.2177 126.622 16.1564 126.622 17.3762C126.622 18.7633 126.915 19.7618 127.501 20.3717C128.087 20.9816 128.834 21.2865 129.743 21.2865C130.724 21.2865 131.501 21.0593 132.075 20.6049V14.004L131.965 13.9466C131.806 13.87 131.598 13.7935 131.34 13.717C131.017 13.6213 130.616 13.5735 130.138 13.5735ZM74.6185 12.9797C73.5885 12.9797 72.79 13.3022 72.2229 13.9472C71.6559 14.5923 71.2996 15.4662 71.1539 16.569H78.0674C77.9945 15.3934 77.6382 14.5012 76.9984 13.8926C76.3585 13.284 75.5652 12.9797 74.6185 12.9797ZM22.8234 3.63175V7.73609H18.3133V3.63175H22.8234ZM115.338 1.26855C116.342 1.26855 117.15 1.57947 117.76 2.20129C118.369 2.82311 118.674 3.58843 118.674 4.49725C118.674 5.40607 118.369 6.17139 117.76 6.79322C117.15 7.41504 116.342 7.72595 115.338 7.72595C114.334 7.72595 113.526 7.41504 112.916 6.79322C112.307 6.17139 112.002 5.40607 112.002 4.49725C112.002 3.58843 112.307 2.82311 112.916 2.20129C113.526 1.57947 114.334 1.26855 115.338 1.26855Z" fill="white"/>
</g>
<defs>
<clipPath id="clip0_1882_24443">
<rect width="174" height="33" fill="white" transform="translate(0 0.743164)"/>
</clipPath>
</defs>
</svg>
