<svg width="30" height="31" viewBox="0 0 30 31" fill="none" xmlns="http://www.w3.org/2000/svg">
<g clip-path="url(#clip0_1882_24449)">
<path d="M14.9996 1.34375C7.04661 1.34375 0.599609 7.79075 0.599609 15.7438C0.599609 23.6968 7.04661 30.1438 14.9996 30.1438C22.9526 30.1438 29.3996 23.6968 29.3996 15.7438C29.3996 7.79075 22.9526 1.34375 14.9996 1.34375ZM20.8571 13.1397C20.8631 13.2627 20.8646 13.3858 20.8646 13.5058C20.8646 17.2558 18.0131 21.5773 12.7961 21.5773C11.2546 21.5798 9.74506 21.1371 8.44911 20.3022C8.66961 20.3293 8.89611 20.3398 9.12561 20.3398C10.4546 20.3398 11.6771 19.8883 12.6476 19.1263C12.0562 19.1146 11.4831 18.9188 11.0083 18.566C10.5334 18.2133 10.1805 17.7211 9.99861 17.1583C10.4233 17.239 10.8609 17.2221 11.2781 17.1088C10.6362 16.9789 10.0589 16.6311 9.64417 16.1242C9.22944 15.6174 9.00277 14.9827 9.00261 14.3278V14.2933C9.38511 14.5048 9.82311 14.6338 10.2881 14.6488C9.68631 14.2481 9.26029 13.6328 9.09718 12.9284C8.93407 12.2241 9.04619 11.4841 9.41061 10.8597C10.123 11.7358 11.0115 12.4524 12.0185 12.9632C13.0254 13.4741 14.1284 13.7677 15.2561 13.8253C15.1127 13.2167 15.1744 12.5779 15.4316 12.008C15.6888 11.4382 16.127 10.9692 16.6782 10.6741C17.2294 10.3791 17.8626 10.2743 18.4795 10.3763C19.0963 10.4782 19.6622 10.781 20.0891 11.2377C20.7239 11.1122 21.3326 10.8793 21.8891 10.5492C21.6776 11.2065 21.2346 11.7645 20.6426 12.1198C21.2049 12.052 21.7539 11.9009 22.2716 11.6712C21.8913 12.2411 21.4123 12.7384 20.8571 13.1397Z" fill="white"/>
</g>
<defs>
<clipPath id="clip0_1882_24449">
<rect width="30" height="30" fill="white" transform="translate(0 0.743164)"/>
</clipPath>
</defs>
</svg>
