<svg width="16" height="19" viewBox="0 0 16 19" fill="none" xmlns="http://www.w3.org/2000/svg">
<path d="M14.9415 7.0286L10.3127 6.24437L8.24352 1.35414C8.18701 1.22024 8.09403 1.11185 7.97918 1.04597C7.69113 0.880201 7.3411 1.01834 7.19708 1.35414L5.1279 6.24437L0.499128 7.0286C0.371513 7.04985 0.254836 7.11998 0.165506 7.22625C0.0575107 7.35565 -0.00199974 7.52973 5.13119e-05 7.71026C0.00210236 7.89078 0.065547 8.06297 0.176444 8.18899L3.52542 11.9953L2.73421 17.3701C2.71565 17.4952 2.72752 17.6238 2.76847 17.7413C2.80941 17.8589 2.8778 17.9607 2.96586 18.0353C3.05393 18.1099 3.15816 18.1542 3.26673 18.1632C3.37529 18.1722 3.48386 18.1456 3.58011 18.0864L7.7203 15.5488L11.8605 18.0864C11.9735 18.1565 12.1048 18.1799 12.2306 18.1544C12.5478 18.0906 12.7611 17.7399 12.7064 17.3701L11.9152 11.9953L15.2642 8.18899C15.3553 8.08485 15.4155 7.94884 15.4337 7.80007C15.4829 7.42815 15.2605 7.08385 14.9415 7.0286Z" fill="#FDBF00"/>
</svg>
