<svg width="16" height="19" viewBox="0 0 16 19" fill="none" xmlns="http://www.w3.org/2000/svg">
<path d="M14.9128 7.0286L10.2929 6.24437L8.2277 1.35414C8.1713 1.22024 8.0785 1.11185 7.96387 1.04597C7.67637 0.880201 7.32702 1.01834 7.18327 1.35414L5.11806 6.24437L0.49817 7.0286C0.3708 7.04985 0.254347 7.11998 0.165189 7.22625C0.0574003 7.35565 -0.0019959 7.52973 5.12135e-05 7.71026C0.00209833 7.89078 0.0654213 8.06297 0.176106 8.18899L3.51866 11.9953L2.72896 17.3701C2.71044 17.4952 2.72229 17.6238 2.76316 17.7413C2.80402 17.8589 2.87227 17.9607 2.96017 18.0353C3.04807 18.1099 3.1521 18.1542 3.26046 18.1632C3.36882 18.1722 3.47718 18.1456 3.57324 18.0864L7.70549 15.5488L11.8377 18.0864C11.9505 18.1565 12.0816 18.1799 12.2071 18.1544C12.5237 18.0906 12.7366 17.7399 12.682 17.3701L11.8923 11.9953L15.2349 8.18899C15.3258 8.08485 15.3859 7.94884 15.4041 7.80007C15.4532 7.42815 15.2312 7.08385 14.9128 7.0286Z" fill="#FDBF00"/>
</svg>
