<svg width="25" height="26" viewBox="0 0 25 26" fill="none" xmlns="http://www.w3.org/2000/svg">
<g clip-path="url(#clip0_1_1446)">
<path d="M12.5 23.7793C9.76736 23.7793 7.14664 22.6937 5.21437 20.7615C3.2821 18.8292 2.19656 16.2085 2.19656 13.4758C2.19656 10.7432 3.2821 8.12247 5.21437 6.1902C7.14664 4.25793 9.76736 3.17239 12.5 3.17239C15.2326 3.17239 17.8534 4.25793 19.7856 6.1902C21.7179 8.12247 22.8034 10.7432 22.8034 13.4758C22.8034 16.2085 21.7179 18.8292 19.7856 20.7615C17.8534 22.6937 15.2326 23.7793 12.5 23.7793ZM12.5 25.2512C15.623 25.2512 18.6181 24.0106 20.8264 21.8023C23.0347 19.594 24.2754 16.5988 24.2754 13.4758C24.2754 10.3528 23.0347 7.3577 20.8264 5.14939C18.6181 2.94108 15.623 1.70047 12.5 1.70047C9.37698 1.70047 6.38187 2.94108 4.17356 5.14939C1.96525 7.3577 0.72464 10.3528 0.72464 13.4758C0.72464 16.5988 1.96525 19.594 4.17356 21.8023C6.38187 24.0106 9.37698 25.2512 12.5 25.2512Z" fill="#1262AF"/>
<path d="M9.87141 8.47569C10.0103 8.40418 10.1662 8.37238 10.3219 8.38376C10.4777 8.39514 10.6273 8.44928 10.7543 8.5402L16.6966 12.7848C16.8067 12.8633 16.8964 12.967 16.9583 13.0871C17.0202 13.2073 17.0525 13.3406 17.0525 13.4758C17.0525 13.611 17.0202 13.7442 16.9583 13.8644C16.8964 13.9846 16.8067 14.0883 16.6966 14.1668L10.7543 18.4113C10.6273 18.5022 10.4778 18.5563 10.3221 18.5677C10.1664 18.579 10.0106 18.5473 9.87181 18.4759C9.73301 18.4044 9.61658 18.2961 9.53534 18.1628C9.45409 18.0295 9.41117 17.8764 9.4113 17.7203V9.23122C9.41114 9.07516 9.454 8.92207 9.53517 8.78878C9.61634 8.65549 9.73268 8.54716 9.87141 8.47569Z" fill="#1262AF"/>
</g>
<defs>
<clipPath id="clip0_1_1446">
<rect width="25" height="25" fill="white" transform="translate(0 0.97583)"/>
</clipPath>
</defs>
</svg>
